{"accessors" : [{"bufferView" : 0, "byteOffset" : 0, "componentType" : 5123, "count" : 30573, "type" : "SCALAR", "max" : [5113], "min" : [0]}, {"bufferView" : 1, "byteOffset" : 0, "componentType" : 5126, "count" : 5114, "type" : "VEC3", "max" : [34.235687255859375, 10.85643482208252, 11.690186500549316], "min" : [24.23198890686035, -12.182814598083496, -2.28413724899292], "name" : "POSITION"}, {"bufferView" : 0, "byteOffset" : 61148, "componentType" : 5123, "count" : 3030, "type" : "SCALAR", "max" : [619], "min" : [0]}, {"bufferView" : 2, "byteOffset" : 0, "componentType" : 5126, "count" : 620, "type" : "VEC3", "max" : [31.542482376098633, -9.120563507080078, 2.626756429672241], "min" : [30.715486526489258, -10.116677284240723, 1.753469705581665], "name" : "POSITION"}, {"bufferView" : 0, "byteOffset" : 67208, "componentType" : 5123, "count" : 3030, "type" : "SCALAR", "max" : [619], "min" : [0]}, {"bufferView" : 3, "byteOffset" : 0, "componentType" : 5126, "count" : 620, "type" : "VEC3", "max" : [31.53046989440918, -10.738301277160645, 6.121111869812012], "min" : [30.82664680480957, -11.927992820739746, 5.050037860870361], "name" : "POSITION"}, {"bufferView" : 0, "byteOffset" : 73268, "componentType" : 5123, "count" : 3030, "type" : "SCALAR", "max" : [619], "min" : [0]}, {"bufferView" : 4, "byteOffset" : 0, "componentType" : 5126, "count" : 620, "type" : "VEC3", "max" : [31.651243209838867, -10.416120529174805, 9.768857955932617], "min" : [31.073270797729492, -11.900042533874512, 8.722408294677734], "name" : "POSITION"}, {"bufferView" : 0, "byteOffset" : 79328, "componentType" : 5123, "count" : 3030, "type" : "SCALAR", "max" : [619], "min" : [0]}, {"bufferView" : 5, "byteOffset" : 0, "componentType" : 5126, "count" : 620, "type" : "VEC3", "max" : [29.32030487060547, -8.817463874816895, 11.690503120422363], "min" : [28.528881072998047, -10.041479110717773, 10.869513511657715], "name" : "POSITION"}, {"bufferView" : 0, "byteOffset" : 85388, "componentType" : 5123, "count" : 3030, "type" : "SCALAR", "max" : [619], "min" : [0]}, {"bufferView" : 6, "byteOffset" : 0, "componentType" : 5126, "count" : 620, "type" : "VEC3", "max" : [25.586469650268555, -2.7863054275512695, 9.588823318481445], "min" : [24.373607635498047, -4.052388668060303, 8.664308547973633], "name" : "POSITION"}, {"bufferView" : 0, "byteOffset" : 91448, "componentType" : 5123, "count" : 1848, "type" : "SCALAR", "max" : [417], "min" : [0]}, {"bufferView" : 7, "byteOffset" : 0, "componentType" : 5126, "count" : 418, "type" : "VEC3", "max" : [31.55042266845703, -9.16219425201416, 2.6280887126922607], "min" : [30.715486526489258, -10.121603012084961, 1.7567503452301025], "name" : "POSITION"}, {"bufferView" : 0, "byteOffset" : 95144, "componentType" : 5123, "count" : 1848, "type" : "SCALAR", "max" : [417], "min" : [0]}, {"bufferView" : 8, "byteOffset" : 0, "componentType" : 5126, "count" : 418, "type" : "VEC3", "max" : [31.540485382080078, -10.846470832824707, 6.121111869812012], "min" : [30.82664680480957, -11.938154220581055, 5.0558953285217285], "name" : "POSITION"}, {"bufferView" : 0, "byteOffset" : 98840, "componentType" : 5123, "count" : 1848, "type" : "SCALAR", "max" : [417], "min" : [0]}, {"bufferView" : 9, "byteOffset" : 0, "componentType" : 5126, "count" : 418, "type" : "VEC3", "max" : [31.652463912963867, -10.45970344543457, 9.770795822143555], "min" : [31.073232650756836, -11.899171829223633, 8.738485336303711], "name" : "POSITION"}, {"bufferView" : 0, "byteOffset" : 102536, "componentType" : 5123, "count" : 1848, "type" : "SCALAR", "max" : [417], "min" : [0]}, {"bufferView" : 10, "byteOffset" : 0, "componentType" : 5126, "count" : 418, "type" : "VEC3", "max" : [29.32030487060547, -8.949257850646973, 11.687085151672363], "min" : [28.506967544555664, -10.044400215148926, 10.887003898620605], "name" : "POSITION"}, {"bufferView" : 0, "byteOffset" : 106232, "componentType" : 5123, "count" : 1848, "type" : "SCALAR", "max" : [417], "min" : [0]}, {"bufferView" : 11, "byteOffset" : 0, "componentType" : 5126, "count" : 418, "type" : "VEC3", "max" : [25.568288803100586, -2.8389229774475098, 9.593244552612305], "min" : [24.376327514648438, -4.044921398162842, 8.767816543579102], "name" : "POSITION"}, {"bufferView" : 0, "byteOffset" : 109928, "componentType" : 5123, "count" : 342, "type" : "SCALAR", "max" : [94], "min" : [0]}, {"bufferView" : 12, "byteOffset" : 0, "componentType" : 5126, "count" : 95, "type" : "VEC3", "max" : [31.548038482666016, -9.131895065307617, 2.427671194076538], "min" : [30.78205108642578, -10.114365577697754, 1.9952675104141235], "name" : "POSITION"}, {"bufferView" : 0, "byteOffset" : 110612, "componentType" : 5123, "count" : 342, "type" : "SCALAR", "max" : [94], "min" : [0]}, {"bufferView" : 13, "byteOffset" : 0, "componentType" : 5126, "count" : 95, "type" : "VEC3", "max" : [31.538206100463867, -10.763582229614258, 5.859398365020752], "min" : [31.020137786865234, -11.920609474182129, 5.338026523590088], "name" : "POSITION"}, {"bufferView" : 0, "byteOffset" : 111296, "componentType" : 5123, "count" : 342, "type" : "SCALAR", "max" : [94], "min" : [0]}, {"bufferView" : 14, "byteOffset" : 0, "componentType" : 5126, "count" : 95, "type" : "VEC3", "max" : [31.61920928955078, -10.416120529174805, 9.547975540161133], "min" : [31.402435302734375, -11.796967506408691, 8.95701789855957], "name" : "POSITION"}, {"bufferView" : 0, "byteOffset" : 111980, "componentType" : 5123, "count" : 342, "type" : "SCALAR", "max" : [94], "min" : [0]}, {"bufferView" : 15, "byteOffset" : 0, "componentType" : 5126, "count" : 95, "type" : "VEC3", "max" : [29.27903938293457, -8.844755172729492, 11.652058601379395], "min" : [28.824054718017578, -9.9514799118042, 11.104411125183105], "name" : "POSITION"}, {"bufferView" : 0, "byteOffset" : 112664, "componentType" : 5123, "count" : 342, "type" : "SCALAR", "max" : [94], "min" : [0]}, {"bufferView" : 16, "byteOffset" : 0, "componentType" : 5126, "count" : 95, "type" : "VEC3", "max" : [25.385828018188477, -2.7863054275512695, 9.519289016723633], "min" : [24.56574058532715, -3.8993494510650635, 8.75676155090332], "name" : "POSITION"}, {"bufferView" : 0, "byteOffset" : 113348, "componentType" : 5123, "count" : 792, "type" : "SCALAR", "max" : [212], "min" : [0]}, {"bufferView" : 17, "byteOffset" : 0, "componentType" : 5126, "count" : 213, "type" : "VEC3", "max" : [31.45619010925293, -9.232678413391113, 2.618372917175293], "min" : [30.749910354614258, -10.07726001739502, 1.7549792528152466], "name" : "POSITION"}, {"bufferView" : 0, "byteOffset" : 114932, "componentType" : 5123, "count" : 792, "type" : "SCALAR", "max" : [212], "min" : [0]}, {"bufferView" : 18, "byteOffset" : 0, "componentType" : 5126, "count" : 213, "type" : "VEC3", "max" : [31.482864379882812, -10.864646911621094, 6.083525657653809], "min" : [30.952653884887695, -11.897575378417969, 5.050037860870361], "name" : "POSITION"}, {"bufferView" : 0, "byteOffset" : 116516, "componentType" : 5123, "count" : 792, "type" : "SCALAR", "max" : [212], "min" : [0]}, {"bufferView" : 19, "byteOffset" : 0, "componentType" : 5126, "count" : 213, "type" : "VEC3", "max" : [31.63136100769043, -10.83484935760498, 9.733665466308594], "min" : [31.073232650756836, -11.896556854248047, 8.756443977355957], "name" : "POSITION"}, {"bufferView" : 0, "byteOffset" : 118100, "componentType" : 5123, "count" : 792, "type" : "SCALAR", "max" : [212], "min" : [0]}, {"bufferView" : 20, "byteOffset" : 0, "componentType" : 5126, "count" : 213, "type" : "VEC3", "max" : [29.257736206054688, -8.987079620361328, 11.682125091552734], "min" : [28.53142738342285, -10.043619155883789, 10.919816970825195], "name" : "POSITION"}, {"bufferView" : 0, "byteOffset" : 119684, "componentType" : 5123, "count" : 792, "type" : "SCALAR", "max" : [212], "min" : [0]}, {"bufferView" : 21, "byteOffset" : 0, "componentType" : 5126, "count" : 213, "type" : "VEC3", "max" : [25.48938751220703, -3.097379446029663, 9.589735984802246], "min" : [24.478343963623047, -4.0364227294921875, 8.703083038330078], "name" : "POSITION"}, {"bufferView" : 0, "byteOffset" : 121268, "componentType" : 5123, "count" : 132, "type" : "SCALAR", "max" : [44], "min" : [0]}, {"bufferView" : 22, "byteOffset" : 0, "componentType" : 5126, "count" : 45, "type" : "VEC3", "max" : [31.509693145751953, -9.225983619689941, 2.4068551063537598], "min" : [31.134355545043945, -9.705713272094727, 1.976884126663208], "name" : "POSITION"}, {"bufferView" : 0, "byteOffset" : 121532, "componentType" : 5123, "count" : 132, "type" : "SCALAR", "max" : [44], "min" : [0]}, {"bufferView" : 23, "byteOffset" : 0, "componentType" : 5126, "count" : 45, "type" : "VEC3", "max" : [31.51555633544922, -10.893381118774414, 5.824419021606445], "min" : [31.28597068786621, -11.487651824951172, 5.334385395050049], "name" : "POSITION"}, {"bufferView" : 0, "byteOffset" : 121796, "componentType" : 5123, "count" : 132, "type" : "SCALAR", "max" : [44], "min" : [0]}, {"bufferView" : 24, "byteOffset" : 0, "componentType" : 5126, "count" : 45, "type" : "VEC3", "max" : [31.605113983154297, -10.554668426513672, 9.417312622070312], "min" : [31.409833908081055, -11.415949821472168, 8.948047637939453], "name" : "POSITION"}, {"bufferView" : 0, "byteOffset" : 122060, "componentType" : 5123, "count" : 132, "type" : "SCALAR", "max" : [44], "min" : [0]}, {"bufferView" : 25, "byteOffset" : 0, "componentType" : 5126, "count" : 45, "type" : "VEC3", "max" : [29.240129470825195, -8.98619556427002, 11.480634689331055], "min" : [28.94629669189453, -9.565658569335938, 11.103052139282227], "name" : "POSITION"}, {"bufferView" : 0, "byteOffset" : 122324, "componentType" : 5123, "count" : 132, "type" : "SCALAR", "max" : [44], "min" : [0]}, {"bufferView" : 26, "byteOffset" : 0, "componentType" : 5126, "count" : 45, "type" : "VEC3", "max" : [25.34969711303711, -3.0277416706085205, 9.366239547729492], "min" : [24.848125457763672, -3.663637161254883, 8.918609619140625], "name" : "POSITION"}], "asset" : {"generator" : "Aspose.3D 24.9.0", "version" : "2.0"}, "buffers" : [{"uri" : "data:application/octet-stream;base64,", "byteLength" : 267524}], "bufferViews" : [{"buffer" : 0, "byteOffset" : 0, "byteLength" : 122588, "target" : 34963}, {"buffer" : 0, "byteOffset" : 122592, "byteLength" : 61368, "byteStride" : 12, "target" : 34962}, {"buffer" : 0, "byteOffset" : 183964, "byteLength" : 7440, "byteStride" : 12, "target" : 34962}, {"buffer" : 0, "byteOffset" : 191408, "byteLength" : 7440, "byteStride" : 12, "target" : 34962}, {"buffer" : 0, "byteOffset" : 198852, "byteLength" : 7440, "byteStride" : 12, "target" : 34962}, {"buffer" : 0, "byteOffset" : 206296, "byteLength" : 7440, "byteStride" : 12, "target" : 34962}, {"buffer" : 0, "byteOffset" : 213740, "byteLength" : 7440, "byteStride" : 12, "target" : 34962}, {"buffer" : 0, "byteOffset" : 221184, "byteLength" : 5016, "byteStride" : 12, "target" : 34962}, {"buffer" : 0, "byteOffset" : 226204, "byteLength" : 5016, "byteStride" : 12, "target" : 34962}, {"buffer" : 0, "byteOffset" : 231224, "byteLength" : 5016, "byteStride" : 12, "target" : 34962}, {"buffer" : 0, "byteOffset" : 236244, "byteLength" : 5016, "byteStride" : 12, "target" : 34962}, {"buffer" : 0, "byteOffset" : 241264, "byteLength" : 5016, "byteStride" : 12, "target" : 34962}, {"buffer" : 0, "byteOffset" : 246284, "byteLength" : 1140, "byteStride" : 12, "target" : 34962}, {"buffer" : 0, "byteOffset" : 247428, "byteLength" : 1140, "byteStride" : 12, "target" : 34962}, {"buffer" : 0, "byteOffset" : 248572, "byteLength" : 1140, "byteStride" : 12, "target" : 34962}, {"buffer" : 0, "byteOffset" : 249716, "byteLength" : 1140, "byteStride" : 12, "target" : 34962}, {"buffer" : 0, "byteOffset" : 250860, "byteLength" : 1140, "byteStride" : 12, "target" : 34962}, {"buffer" : 0, "byteOffset" : 252004, "byteLength" : 2556, "byteStride" : 12, "target" : 34962}, {"buffer" : 0, "byteOffset" : 254564, "byteLength" : 2556, "byteStride" : 12, "target" : 34962}, {"buffer" : 0, "byteOffset" : 257124, "byteLength" : 2556, "byteStride" : 12, "target" : 34962}, {"buffer" : 0, "byteOffset" : 259684, "byteLength" : 2556, "byteStride" : 12, "target" : 34962}, {"buffer" : 0, "byteOffset" : 262244, "byteLength" : 2556, "byteStride" : 12, "target" : 34962}, {"buffer" : 0, "byteOffset" : 264804, "byteLength" : 540, "byteStride" : 12, "target" : 34962}, {"buffer" : 0, "byteOffset" : 265348, "byteLength" : 540, "byteStride" : 12, "target" : 34962}, {"buffer" : 0, "byteOffset" : 265892, "byteLength" : 540, "byteStride" : 12, "target" : 34962}, {"buffer" : 0, "byteOffset" : 266436, "byteLength" : 540, "byteStride" : 12, "target" : 34962}, {"buffer" : 0, "byteOffset" : 266980, "byteLength" : 540, "byteStride" : 12, "target" : 34962}], "meshes" : [{"primitives" : [{"attributes" : {"POSITION" : 1}, "indices" : 0, "mode" : 4}], "name" : ""}, {"primitives" : [{"attributes" : {"POSITION" : 3}, "indices" : 2, "mode" : 4}], "name" : ""}, {"primitives" : [{"attributes" : {"POSITION" : 5}, "indices" : 4, "mode" : 4}], "name" : ""}, {"primitives" : [{"attributes" : {"POSITION" : 7}, "indices" : 6, "mode" : 4}], "name" : ""}, {"primitives" : [{"attributes" : {"POSITION" : 9}, "indices" : 8, "mode" : 4}], "name" : ""}, {"primitives" : [{"attributes" : {"POSITION" : 11}, "indices" : 10, "mode" : 4}], "name" : ""}, {"primitives" : [{"attributes" : {"POSITION" : 13}, "indices" : 12, "mode" : 4}], "name" : ""}, {"primitives" : [{"attributes" : {"POSITION" : 15}, "indices" : 14, "mode" : 4}], "name" : ""}, {"primitives" : [{"attributes" : {"POSITION" : 17}, "indices" : 16, "mode" : 4}], "name" : ""}, {"primitives" : [{"attributes" : {"POSITION" : 19}, "indices" : 18, "mode" : 4}], "name" : ""}, {"primitives" : [{"attributes" : {"POSITION" : 21}, "indices" : 20, "mode" : 4}], "name" : ""}, {"primitives" : [{"attributes" : {"POSITION" : 23}, "indices" : 22, "mode" : 4}], "name" : ""}, {"primitives" : [{"attributes" : {"POSITION" : 25}, "indices" : 24, "mode" : 4}], "name" : ""}, {"primitives" : [{"attributes" : {"POSITION" : 27}, "indices" : 26, "mode" : 4}], "name" : ""}, {"primitives" : [{"attributes" : {"POSITION" : 29}, "indices" : 28, "mode" : 4}], "name" : ""}, {"primitives" : [{"attributes" : {"POSITION" : 31}, "indices" : 30, "mode" : 4}], "name" : ""}, {"primitives" : [{"attributes" : {"POSITION" : 33}, "indices" : 32, "mode" : 4}], "name" : ""}, {"primitives" : [{"attributes" : {"POSITION" : 35}, "indices" : 34, "mode" : 4}], "name" : ""}, {"primitives" : [{"attributes" : {"POSITION" : 37}, "indices" : 36, "mode" : 4}], "name" : ""}, {"primitives" : [{"attributes" : {"POSITION" : 39}, "indices" : 38, "mode" : 4}], "name" : ""}, {"primitives" : [{"attributes" : {"POSITION" : 41}, "indices" : 40, "mode" : 4}], "name" : ""}, {"primitives" : [{"attributes" : {"POSITION" : 43}, "indices" : 42, "mode" : 4}], "name" : ""}, {"primitives" : [{"attributes" : {"POSITION" : 45}, "indices" : 44, "mode" : 4}], "name" : ""}, {"primitives" : [{"attributes" : {"POSITION" : 47}, "indices" : 46, "mode" : 4}], "name" : ""}, {"primitives" : [{"attributes" : {"POSITION" : 49}, "indices" : 48, "mode" : 4}], "name" : ""}, {"primitives" : [{"attributes" : {"POSITION" : 51}, "indices" : 50, "mode" : 4}], "name" : ""}], "nodes" : [{"mesh" : 0, "name" : "Group51871"}, {"mesh" : 1, "name" : "Group64250"}, {"mesh" : 2, "name" : "Group64265"}, {"mesh" : 3, "name" : "Group64280"}, {"mesh" : 4, "name" : "Group64295"}, {"mesh" : 5, "name" : "Group64310"}, {"mesh" : 6, "name" : "Group64250"}, {"mesh" : 7, "name" : "Group64265"}, {"mesh" : 8, "name" : "Group64280"}, {"mesh" : 9, "name" : "Group64295"}, {"mesh" : 10, "name" : "Group64310"}, {"mesh" : 11, "name" : "Group64250"}, {"mesh" : 12, "name" : "Group64265"}, {"mesh" : 13, "name" : "Group64280"}, {"mesh" : 14, "name" : "Group64295"}, {"mesh" : 15, "name" : "Group64310"}, {"mesh" : 16, "name" : "Group64250"}, {"mesh" : 17, "name" : "Group64265"}, {"mesh" : 18, "name" : "Group64280"}, {"mesh" : 19, "name" : "Group64295"}, {"mesh" : 20, "name" : "Group64310"}, {"mesh" : 21, "name" : "Group64250"}, {"mesh" : 22, "name" : "Group64265"}, {"mesh" : 23, "name" : "Group64280"}, {"mesh" : 24, "name" : "Group64295"}, {"mesh" : 25, "name" : "Group64310"}], "scene" : 0, "scenes" : [{"nodes" : [0, 1, 2, 3, 4, 5, 6, 7, 8, 9, 10, 11, 12, 13, 14, 15, 16, 17, 18, 19, 20, 21, 22, 23, 24, 25]}]}